<svg height="512" viewBox="0 0 58 58" width="512" xmlns="http://www.w3.org/2000/svg"><g id="040---Koala" fill="none" transform="translate(0 -1)"><path id="Shape" d="m58 12v45c-.0032948 1.1032019-.8967981 1.9967052-2 2l-23 .0000277c.5305905.0027954 1.0395388-.2101688 1.41-.5900277.5684616-.5718399.7379389-1.4291108.4298346-2.1742425s-1.0335232-1.2323721-1.8398346-1.2357575c.8975528.0059383 1.6864746-.5935137 1.9212506-1.4598372.234776-.8663236-.1435165-1.7820938-.9212506-2.2301628v-28.54c1.06-1.26 1.25-5.13 1.44-6.48 4.04-.89 7.56-1.99 7.56-6.29h13c1.1032019.0032948 1.9967052.8967981 2 2z" fill="#805333"/><path id="Shape" d="m56 12v45c.0771621 1.0126321-.6692481 1.9012156-1.68 2h-19.32c.4638978-.0061969.8997112-.2233674 1.184-.59 1.053-1.219.322-3.41-1.184-3.41 1.671 0 2.345-2.662.84-3.69v-28.54c.89-1.26 1.05-5.13 1.21-6.48 3.393-.89 3.95-1.99 3.95-6.29h13.32c1.0107519.0987844 1.7571621.9873679 1.68 2z" fill="#a56a43"/><g fill="#603e26"><path id="Shape" d="m40 24c-.5522847 0-1-.4477153-1-1v-2c0-.5522847.4477153-1 1-1s1 .4477153 1 1v2c0 .5522847-.4477153 1-1 1z"/><path id="Shape" d="m46 25c-.5522847 0-1-.4477153-1-1v-6c0-.5522847.4477153-1 1-1s1 .4477153 1 1v6c0 .5522847-.4477153 1-1 1z"/><path id="Shape" d="m53 10v6c0 .5522847-.4477153 1-1 1s-1-.4477153-1-1v-6z"/><path id="Shape" d="m52 51c-.5522847 0-1-.4477153-1-1v-29c0-.5522847.4477153-1 1-1s1 .4477153 1 1v29c0 .5522847-.4477153 1-1 1z"/><path id="Shape" d="m40 55c-.5522847 0-1-.4477153-1-1v-13c0-.5522847.4477153-1 1-1s1 .4477153 1 1v13c0 .5522847-.4477153 1-1 1z"/><path id="Shape" d="m47 41v18h-2v-18c0-.5522847.4477153-1 1-1s1 .4477153 1 1z"/></g><path id="Shape" d="m8.06 18.79c-3.96018218-.8748287-6.84602851-4.2903126-7.04753316-8.3409625-.20150464-4.05064982 2.33111762-7.73568221 6.1849237-8.99922758 3.85380606-1.26354538 8.07664626.2065771 10.31260946 3.59019008-5.924 2.742-10.015 10.08-9.45 13.75z" fill="#bdc3c7"/><path id="Shape" d="m43 10c-.0018968 4.2226976-2.93714 7.8772-7.06 8.79.571-3.71-3.587-11.036-9.45-13.75 2.1896225-3.31545023 6.2942517-4.80278439 10.0994835-3.65960146 3.8052319 1.14318293 6.4105922 4.64635884 6.4105165 8.61960146z" fill="#bdc3c7"/><path id="Shape" d="m8.69 14.82c-2.14667059-.5772692-3.65445226-2.5024592-3.70048773-4.7249162-.04603547-2.22245701 1.38073121-4.2084326 3.5016559-4.8740998 2.12092473-.66566719 4.42664313.14884157 5.65883183 1.999016" fill="#7f8c8d"/><path id="Shape" d="m29.835 7.22c1.2321887-1.85017443 3.5379071-2.66468319 5.6588318-1.999016 2.1209247.6656672 3.5476914 2.65164279 3.5016559 4.8740998-.0460354 2.222457-1.5538171 4.147647-3.7004877 4.7249162" fill="#7f8c8d"/><path id="Shape" d="m36 18c0 4.248-5.679 10-14 10-7.838 0-13.355-5.161-13.94-9.21-.571-3.71 3.587-11.036 9.45-13.75 9.89-4.557 18.49 7.486 18.49 12.96z" fill="#d1d4d1"/><path id="Shape" d="m34 18c0 4.5-5.154 10-12 10-6.371 0-11.409-4.856-11.949-9.21-.7-5.326 6.991-18.487 15.8-13.75 4.738 2.56 8.149 9.22 8.149 12.96z" fill="#ecf0f1"/><path id="Shape" d="m43.9 34.32c-.3093382 1.287117-1.3195024 2.2888888-2.6091553 2.5874784-1.2896528.2985895-2.6373016-.1572846-3.4808447-1.1774784-.3411206-.447813-.8672262-.7163844-1.43-.73h-12.7c2.5773268 1.2605808 4.4446533 3.6210993 5.0781522 6.4193767s-.0350678 5.7328939-1.8181522 7.9806233c-.2272632.3030176-.2638192.7084296-.0944272 1.0472136s.5156551.5527864.8944272.5527864c5.425 0 5.6-.1 6.26.31.774391.450073 1.1499519 1.364151.9156702 2.2286505-.2342816.8644994-1.0199912 1.46387-1.9156702 1.4613495 1.1045695 0 2 .8954305 2 2s-.8954305 2-2 2h-16c-9.39 0-17-3.53-17-13.74 0-7.92 4.57-17.53 10.99-21.45 4.0922205 3.6612535 9.7370618 5.0481003 15.06 3.7l10.2 1.27c.5929485.0875566 1.1910711-.1217864 1.6-.56.8566719-.9922024 2.1959635-1.4225266 3.4702432-1.1150145 1.2742796.3075121 2.2699005 1.3013028 2.5797568 2.5750145.6950448.5698166 1.0980011 1.4212352 1.0980011 2.32s-.4029563 1.7501834-1.0980011 2.32z" fill="#bdc3c7"/><path id="Shape" d="m26 20c0 2.209139-1.790861 4-4 4s-4-1.790861-4-4c0-2.209 1.791-6 4-6s4 3.791 4 6z" fill="#56595e"/><path id="Shape" d="m28 16c-.5522847 0-1-.4477153-1-1v-2c0-.5522847.4477153-1 1-1s1 .4477153 1 1v2c0 .5522847-.4477153 1-1 1z" fill="#393f4a"/><path id="Shape" d="m16 16c-.5522847 0-1-.4477153-1-1v-2c0-.5522847.4477153-1 1-1s1 .4477153 1 1v2c0 .5522847-.4477153 1-1 1z" fill="#393f4a"/><path id="Shape" d="m27.21 35h-3.49c-2.4149481-1.0013395-5.1563471-.8356841-7.4331469.4491652s-3.8356942 3.5459461-4.2268531 6.1308348c-.0248058.3768691-.2598237.7076108-.6075556.8550155s-.7488458.0863213-1.0369378-.1579093c-.288092-.2442307-.4140062-.6299367-.3255066-.9971062.5331886-3.588334 2.8867272-6.644566 6.2197666-8.076795 3.3330393-1.432229 7.1700694-1.0361253 10.1402334 1.046795.2677586.2349478.5215265.4853766.76.75z" fill="#7f8c8d"/><path id="Shape" d="m35 57h-4c-.5522847 0-1-.4477153-1-1s.4477153-1 1-1h2c1.1032019.0032948 1.9967052.8967981 2 2z" fill="#7f8c8d"/></g></svg>