<?xml version="1.0" encoding="utf-8"?>
<!-- Generator: Adobe Illustrator 23.0.0, SVG Export Plug-In . SVG Version: 6.00 Build 0)  -->
<svg version="1.1" id="Calque_1" xmlns="http://www.w3.org/2000/svg" xmlns:xlink="http://www.w3.org/1999/xlink" x="0px" y="0px"
	 viewBox="0 0 841.9 595.3" style="enable-background:new 0 0 841.9 595.3;" xml:space="preserve">
<style type="text/css">
	.st0{fill:#444443;}
</style>
<g>
	<path class="st0" d="M590.4,372.6c-4.6-23.1-12.7-44.7-27.6-63.5c-1.4-1.8-1.3-5.7-0.5-8.1c4.5-13.1,1.5-23.8-9.3-30.6
		c-11.6-7.3-22.2-5.9-32.4,3.7c-1.8,1.7-5.4,2.9-7.7,2.4c-18.9-4.8-38-5.2-57-1.8c-16.1,2.9-31.5,7.8-45.1,17.7
		c-14.2,10.3-29.1,19.6-43.6,29.4c-4.2,2.9-7.1,2.6-11.2-1.3c-11.5-11.1-34.5-13.7-45.3-4.6c-4.8,4.1-8.6,4.4-14.2,3.2
		c-13.7-3-25.7,3.6-31.7,16.2c-1,2.2-3.1,4.1-5.1,5.4c-15.4,10.2-25.5,24.2-30.1,41.9c-2.5,9.7-3.5,19.7-5.3,30.2
		c-17.6,1.2-22.8,8.5-16.7,23.4c2.8,6.9,5.4,13.8,8.2,20.6c7.4,18.2,17.7,32.9,39.6,35.2c10.3,1.1,20.4,4.2,30.7,4.7
		c42.4,1.8,84.9,2.9,127.3,4.4c5.7,0.2,11.3,1.1,17,1.4c6.7,0.4,13.5,1.1,20.1,0.7c27.1-1.6,54.2-3.1,81.3-5.4
		c17.2-1.5,34.4-4.2,51.5-6.8c2.5-0.4,6.3-3,6.6-5c3.2-20.9,7.6-41.9,7.9-63C598.1,406.2,593.7,389.3,590.4,372.6z M370.6,452.2
		c-1.1,9.8-2.9,19.4-4.1,29.2c-0.6,4.4-2.5,7-7.1,7.6c-34.9,4.6-69.7,6.3-104.1-2.9c-21.9-5.9-33.2-18.4-36.8-39.9
		c14.6-6.9,15.2-10.7,13-30.8c-2.8-25.9,6.4-58.6,38-73.9c9.6-4.6,20.2-7.1,30.6-10.7c4.7,25.2,25.8,37.7,49.4,30.1
		c3.6-1.2,6.4-5.6,9.1-8.9c2-2.5,3.1-5.7,4.6-8.6c0.8-0.1,1.5-0.3,2.3-0.4c2.4,9.5,5.7,18.9,7.1,28.6
		C376.6,398.6,373.8,425.4,370.6,452.2z M533.7,358.9c-13.2,4.6-22.3,13-25.9,27.4c-6.9,27-7.6,53.7,2.1,81.3
		c-8.1,2.6-16.1,5.1-24.2,7.7c-2.6-24.9-14.7-39.3-34.3-42.2c-7-1-13.7-3.6-20.5-5.5c6.4-45.5,12.4-89.6-18.8-130.3
		c34.3-20.5,70-26.1,107.3-12.7c37.8,13.6,55,44.6,64.7,83.7C567.7,354.9,551.2,352.9,533.7,358.9z"/>
	<path class="st0" d="M276,387.2c-7.7-1.9-15.4-1.1-20.5,5.6c-10.4,13.6-14.9,28.9-8.5,45.7c6.2,16.3,20.9,18.2,33.1,20.1
		c20.8,0.4,32.8-12.7,30.8-31.3C309.2,411.2,291.9,391,276,387.2z"/>
</g>
<g>
	<path d="M417.5,60.6c2.3,0,4.1,0.2,5.5,0.5c1.4,0.3,2.5,0.8,3.3,1.4c0.8,0.6,1.3,1.2,1.6,1.9c0.3,0.7,0.4,1.5,0.4,2.2
		c0,0.7-0.1,1.4-0.4,2.1c-0.3,0.7-0.7,1.3-1.1,1.8c-0.4,0.5-0.9,0.9-1.3,1.2s-0.8,0.4-1.1,0.4s-0.5-0.2-0.8-0.6
		c-0.2-0.4-0.6-0.8-1.2-1.3c-0.6-0.5-1.5-0.9-2.7-1.3c-1.2-0.4-3-0.6-5.2-0.6c-1.4,0-3,0.1-4.7,0.2c-1.7,0.1-3.4,0.3-5.3,0.6
		c0.3,0.3,0.6,0.6,0.9,0.9c0.3,0.3,0.6,0.7,0.8,1.1c0.3,0.4,0.4,0.7,0.6,1.1c0.1,0.3,0.2,0.6,0.1,0.8c0,0.5-0.5,1.8-1.2,3.9
		c-0.8,2.1-1.8,4.7-3,7.8c-1.2,3-2.5,6.3-3.8,9.9c-1.4,3.6-2.6,7-3.8,10.3c-1.1,3.3-2.1,6.3-2.9,8.9c-0.8,2.6-1.2,4.6-1.2,5.8
		c0,0.6-0.4,0.8-1.3,0.7c-0.9-0.1-1.9-0.5-2.9-1c-1.1-0.6-2-1.3-2.9-2.2c-0.9-0.9-1.3-1.9-1.3-3c0-0.7,0.3-2,0.9-3.7
		c0.6-1.7,1.3-3.7,2.2-6c0.9-2.3,1.9-4.9,3-7.7c1.1-2.8,2.2-5.7,3.2-8.7c1.1-3,2-6,2.9-9c0.9-3,1.5-5.9,2-8.6
		c-2.7,0.4-5.2,0.7-7.5,1c-2.3,0.3-4.2,0.5-5.7,0.5c-1.6,0-2.9-0.3-3.9-0.8c-1-0.5-1.8-1.1-2.4-1.9c-0.6-0.7-1-1.4-1.2-2.1
		c-0.2-0.7-0.3-1.2-0.3-1.6c0-0.9,0.1-1.4,0.2-1.6c0.1-0.2,0.4-0.2,1,0c0.6,0.2,1.4,0.4,2.6,0.7c1.1,0.3,2.8,0.4,4.9,0.4
		c2.1,0,4.5-0.2,7.4-0.7c2.9-0.4,5.8-0.9,8.9-1.5c3.1-0.6,6.1-1.1,9-1.5C412.6,60.8,415.2,60.6,417.5,60.6z"/>
	<path d="M448.7,96.4c0.4-0.6,0.7-0.8,0.9-0.6c0.2,0.1,0.4,0.4,0.5,0.8c0.1,0.4,0.2,0.9,0.1,1.3c0,0.5-0.1,0.8-0.2,1
		c-0.5,0.7-1.2,1.8-2.1,3.1c-1,1.4-2.1,2.8-3.3,4.4c-1.2,1.6-2.6,3.2-4,4.9c-1.4,1.7-2.9,3.2-4.4,4.6c-1.5,1.4-2.9,2.5-4.2,3.3
		c-1.3,0.9-2.5,1.3-3.6,1.3c-0.6,0-1.5-0.2-2.5-0.5c-1-0.3-2.1-0.9-3.1-1.6c-1-0.7-1.9-1.6-2.5-2.7c-0.7-1.1-0.9-2.4-0.8-3.8
		c0.1-1,0.4-2.1,0.8-3.4c0.4-1.3,1-2.6,1.6-4c0.6-1.4,1.2-2.7,1.9-4.1c0.6-1.4,1.2-2.6,1.7-3.6c0.5-1.1,0.8-1.9,1.1-2.6
		c0.2-0.6,0.2-1-0.1-1c-0.2,0-0.6,0.4-1.2,1.1c-0.6,0.7-1.3,1.7-2.1,2.8c-0.9,1.2-1.8,2.5-2.8,4c-1,1.5-2,3-3.1,4.5
		c-1.1,1.5-2.1,3-3.1,4.5c-1,1.5-2,2.8-2.8,3.9c-0.3,0.8-0.5,1.5-0.7,2.1c-0.2,0.6-0.2,0.9-0.2,1c0,0.4,0,0.6,0,0.8
		c0,0.2,0.1,0.3,0.1,0.4c0,0.1,0,0.2,0,0.3s-0.2,0.2-0.3,0.4c-0.2,0.2-0.8,0.4-1.8,0.6c-1,0.2-2,0.1-3-0.1c-1-0.2-1.9-0.7-2.7-1.5
		c-0.8-0.8-1.1-2.1-1-3.8c0.1-0.8,0.5-2.2,1.2-4.2c0.7-2,1.6-4.4,2.6-7.1c1-2.8,2.2-5.8,3.4-9.1c1.2-3.3,2.4-6.7,3.5-10.1
		c1.1-3.4,2-6.8,2.9-10.1c0.8-3.3,1.4-6.4,1.7-9.3c0-0.6,0.3-0.9,0.8-1c0.5-0.1,1.1,0,1.9,0.2c0.7,0.3,1.5,0.6,2.3,1.1
		c0.8,0.5,1.6,1,2.3,1.6c0.7,0.6,1.3,1.2,1.7,1.8c0.4,0.6,0.6,1.1,0.6,1.6c0,0.3-0.2,1.1-0.6,2.2c-0.4,1.2-0.9,2.7-1.5,4.4
		c-0.6,1.8-1.3,3.8-2.1,6.1c-0.8,2.3-1.6,4.6-2.4,7c-0.9,2.4-1.7,4.9-2.6,7.3c-0.9,2.5-1.7,4.8-2.5,7.1c1.1-1.7,2.4-3.7,3.8-5.8
		c1.4-2.1,2.8-4.1,4.3-6c1.4-1.9,2.8-3.4,4.1-4.7c1.3-1.3,2.4-1.9,3.3-1.9c1.3,0,2.4,0.3,3.3,0.8c0.9,0.5,1.6,1.2,2.2,2
		c0.5,0.8,0.9,1.7,1.1,2.7c0.2,1,0.3,1.9,0.2,2.8c0,0.6-0.3,1.6-0.7,2.9c-0.4,1.4-1,2.9-1.6,4.6c-0.6,1.7-1.3,3.4-1.9,5.2
		c-0.6,1.8-1.2,3.4-1.6,4.9c-0.4,1.5-0.7,2.7-0.9,3.6c-0.2,0.9,0,1.4,0.4,1.4c0.5,0,1.2-0.3,2.1-1c0.9-0.7,1.9-1.6,2.9-2.7
		c1.1-1.1,2.2-2.4,3.4-3.8c1.2-1.4,2.4-2.8,3.6-4.3c1.1-1.5,2.3-2.9,3.3-4.3C447.1,98.8,448,97.5,448.7,96.4z"/>
	<path d="M478.8,96.1c0.3-0.4,0.6-0.6,0.8-0.4c0.2,0.1,0.4,0.3,0.5,0.7c0.1,0.3,0.2,0.7,0.2,1c0,0.4,0,0.6-0.1,0.8
		c-0.5,0.7-1.3,1.7-2.3,3.1c-1,1.4-2.3,2.9-3.7,4.5c-1.4,1.6-2.9,3.3-4.6,5c-1.7,1.7-3.4,3.2-5.2,4.6c-1.8,1.4-3.5,2.5-5.3,3.4
		c-1.8,0.9-3.4,1.3-5,1.3c-1.1,0-2.4-0.3-3.6-0.9c-1.3-0.6-2.4-1.4-3.5-2.3c-1.1-0.9-1.9-1.9-2.6-3c-0.7-1.1-1-2-0.9-2.8
		c0.2-2.1,0.6-4.1,1.3-6.2c0.7-2.1,1.5-4,2.5-5.9c1-1.9,2.1-3.6,3.3-5.2c1.2-1.6,2.4-3,3.7-4.2c1.3-1.2,2.5-2.1,3.8-2.8
		c1.2-0.7,2.4-1,3.4-1c1.3,0,2.5,0.3,3.7,1c1.2,0.7,2.2,1.6,3.1,2.6c0.8,1,1.5,2.2,2,3.3c0.5,1.2,0.7,2.3,0.7,3.2
		c-0.1,1-0.5,2.1-1.3,3.6c-0.8,1.4-1.8,2.7-3.1,4c-1.2,1.3-2.6,2.4-4.1,3.3c-1.5,0.9-3.1,1.4-4.6,1.4c-0.9,0-1.7-0.1-2.4-0.2
		c-0.7-0.1-1.4-0.3-2-0.5c-0.5,1.2-0.8,2.4-1.1,3.5c-0.3,1.1-0.4,2-0.4,2.8c0,0.8,0.1,1.4,0.4,1.9c0.3,0.5,0.8,0.7,1.4,0.7
		c1.4,0,2.9-0.4,4.5-1.1c1.6-0.7,3.1-1.6,4.7-2.8c1.6-1.1,3.1-2.5,4.7-3.9c1.5-1.5,3-3,4.4-4.4c1.4-1.5,2.7-2.9,3.8-4.3
		C476.9,98.3,478,97.1,478.8,96.1z M464.4,90.5c-0.5,0-1.1,0.3-1.8,0.9c-0.7,0.6-1.4,1.4-2.1,2.4c-0.8,1-1.5,2.2-2.3,3.5
		c-0.8,1.3-1.5,2.7-2.3,4.1c1.8-0.4,3.4-1.2,4.7-2.4c1.4-1.2,2.4-2.4,3.2-3.7c0.8-1.3,1.3-2.4,1.4-3.4
		C465.3,91,465.1,90.5,464.4,90.5z"/>
</g>
<g>
	<g>
		<path d="M114.7,192.2l59.3-15.4c25.4-6.6,44.3,5.2,50.4,28.7c6.1,23.6-5.2,41.6-30.5,48.2l-33.7,8.7l10.4,40.3l-25.6,6.6
			L114.7,192.2z M184,233.1c13.4-3.5,17.4-11.2,14.7-21.7c-2.8-10.7-10.1-15.2-23.3-11.8l-29.5,7.6l8.7,33.4L184,233.1z"/>
		<path d="M315.5,248.4l-45.4,6.1l-4.7,26.7L237,285l25.7-125.6l35-4.7l57.9,114.4l-28.5,3.8L315.5,248.4z M306,228.2l-22.2-47.3
			l-0.7,0.1l-9,51.5L306,228.2z"/>
		<path d="M368.9,147.6l28,0.2l51.3,82.6l0.8,0l0.5-82.3l26.6,0.2l-0.8,121.1l-28.4-0.2L396.1,187l-0.9,0l-0.5,81.9l-26.6-0.2
			L368.9,147.6z"/>
		<path d="M517.9,151.6l46.1,7c42.1,6.4,56.6,31.5,50.9,69.4c-5.7,37.8-27.8,56.5-69.2,50.3l-45.9-7L517.9,151.6z M547,255.5
			c26.7,4,38.3-7.9,42-32.3c3.6-23.5-3.2-38.4-28.7-42.3l-19.5-3l-11.3,74.9L547,255.5z"/>
		<path d="M694,285l-44-12.5L635,295.1l-27.6-7.8l73.5-105l34,9.6l7.6,128l-27.6-7.8L694,285z M693.3,262.6l-1.6-52.2l-0.7-0.2
			l-28.7,43.6L693.3,262.6z"/>
	</g>
	<circle cx="88" cy="269.9" r="11.6"/>
	<circle cx="754.6" cy="269.9" r="11.6"/>
</g>
<g>
	<path d="M158.5,488.3h22.1c9.3,0,14.7,4.7,14.7,12c0,5.4-3.1,8.3-6.3,9.5v0.2c4.6,0.9,8.6,4.4,8.6,11c0,7.7-5.5,12.6-15.3,12.6
		h-23.9V488.3z M179.2,506.7c4.2,0,6-1.9,6-5.2c0-3.2-1.7-4.8-5.8-4.8h-11v10H179.2z M181.5,525.2c4.5,0,6.2-2.3,6.2-5.4
		c0-3.5-2.3-5.5-6.2-5.5h-13v10.8H181.5z"/>
	<path d="M227,488.3h21.9c9,0,15.4,5,15.4,13.4c0,6.1-3.1,10.4-8.6,12.3l10.7,19.8H255l-9.1-18.4h-9v18.4H227V488.3z M248.3,507.6
		c4.2,0,6.1-2.3,6.1-5.5c0-3.4-2.1-5.4-6.4-5.4h-11v11H248.3z"/>
	<path d="M294.8,488.3h10v45.4h-10V488.3z"/>
	<path d="M334.4,510.9c0-15.1,8.2-23.3,21.5-23.3c10,0,17,5,19.7,13.6l-9.3,2.9c-1.2-4.9-4.8-7.8-10.3-7.8
		c-7.8,0-11.6,5.7-11.6,14.7c0,9,3.9,14.8,11.6,14.8c5.5,0,9.1-2.9,10.3-7.8l9.3,2.9c-2.6,8.5-9.7,13.5-19.7,13.5
		C342.5,534.3,334.4,526.1,334.4,510.9z"/>
	<path d="M401.7,510.9c0-15.1,8.2-23.3,21.5-23.3c13.3,0,21.6,8.2,21.6,23.3c0,15.2-8.4,23.3-21.6,23.3
		C409.9,534.3,401.7,526.1,401.7,510.9z M434.9,510.9c0-9.1-4-14.8-11.8-14.8c-7.8,0-11.6,5.7-11.6,14.8c0,9.1,3.9,14.9,11.6,14.9
		C430.9,525.8,434.9,520.1,434.9,510.9z"/>
	<path d="M474.4,488.3h10v36.9h21.4v8.5h-31.3V488.3z"/>
	<path d="M533.9,488.3h33.4v8.4h-23.4v10h21.7v8.4h-21.7v10.1h25v8.4h-34.9V488.3z"/>
	<path d="M596.4,516.5v-28.2h10v28.5c0,5.3,3,8.4,8.2,8.4c5.3,0,8.4-3.1,8.4-8.4v-28.5h10v27.9c0,11.4-6,18.1-18.4,18.1
		C602.4,534.3,596.4,527.6,596.4,516.5z"/>
	<path d="M664.3,488.3h21.9c9,0,15.4,5,15.4,13.4c0,6.1-3.1,10.4-8.6,12.3l10.7,19.8h-11.4l-9.1-18.4h-9v18.4h-9.9V488.3z
		 M685.7,507.6c4.2,0,6.1-2.3,6.1-5.5c0-3.4-2.1-5.4-6.4-5.4h-11v11H685.7z"/>
</g>
</svg>
